# xmcd CD database file
#
# Track frame offsets:
#	150
#	11618
#	27515
#	41207
#	49123
#	57299
#	75084
#	85323
#	100005
#	112425
#	138906
#	155476
#	169128
#	178450
#	197726
#	212938
#
# Disc length: 3040 seconds
#
# Revision: 0
# Processed by: cddbd v1.5.1PL0 Copyright (c) Steve Scherf et al.
# Submitted via: CDex 1.60beta1
#
DISCID=e10bde10
DTITLE=Cory Combs - Postcards From California
DYEAR=2003
DGENRE=Jazz
TTITLE0=Rubber Band
TTITLE1=Return To Sender
TTITLE2=Descendo A Serra
TTITLE3=Tomorrow Is The Question!
TTITLE4=Wind Up Bird
TTITLE5=Red River Valley
TTITLE6=On Too Long
TTITLE7=West Wind
TTITLE8=Segura Ele
TTITLE9=Postcards From California
TTITLE10=Crossing Currents
TTITLE11=Shattered Bread Knife
TTITLE12=On Too Long Reprise
TTITLE13=Foreign Postmark
TTITLE14=Wade In The Water
TTITLE15=Tell Me Something Good
EXTD=YEAR: 2003
EXTT0=
EXTT1=
EXTT2=
EXTT3=
EXTT4=
EXTT5=
EXTT6=
EXTT7=
EXTT8=
EXTT9=
EXTT10=
EXTT11=
EXTT12=
EXTT13=
EXTT14=
EXTT15=
PLAYORDER=
